# xmcd
#
# Track frame offsets: 
#        150
#        15489
#        50064
#        68383
#        87469
#        103178
#        125964
#
# Disc length: 1880 seconds
#
# Revision: 2
# Processed by: cddbd v1.5.2PL0 Copyright (c) Steve Scherf et al.
# Submitted via: ExactAudioCopyFreeDBPlugin 1.0
#
DISCID=5d075607
DTITLE=Hunt's Determination Band - This Is Determination Problems [200
DTITLE=6]
DYEAR=1977
DGENRE=Funk
TTITLE0=Danceland
TTITLE1=Tonight
TTITLE2=Problems
TTITLE3=Loneliness
TTITLE4=Number One Lady
TTITLE5=I Got My Nut
TTITLE6=Where the Funk Come From
EXTD=
EXTT0=
EXTT1=
EXTT2=
EXTT3=
EXTT4=
EXTT5=
EXTT6=
PLAYORDER=
